<?xml version="1.0" encoding="UTF-8"?>
<svg width="1350.8pt" height="425.69pt" version="1.1" viewBox="0 0 1350.8 425.69" xmlns="http://www.w3.org/2000/svg" xmlns:cc="http://creativecommons.org/ns#" xmlns:dc="http://purl.org/dc/elements/1.1/" xmlns:rdf="http://www.w3.org/1999/02/22-rdf-syntax-ns#">
 <metadata>
  <rdf:RDF>
   <cc:Work>
    <dc:type rdf:resource="http://purl.org/dc/dcmitype/StillImage"/>
    <dc:date>2022-12-19T20:48:53.425922</dc:date>
    <dc:format>image/svg+xml</dc:format>
    <dc:creator>
     <cc:Agent>
      <dc:title>Matplotlib v3.6.2, https://matplotlib.org/</dc:title>
     </cc:Agent>
    </dc:creator>
   </cc:Work>
  </rdf:RDF>
 </metadata>
 <defs>
  <style type="text/css">*{stroke-linejoin: round; stroke-linecap: butt}</style>
 </defs>
 <g transform="translate(-102.41 -113.58)" fill="none" stroke="#306998" stroke-linecap="square" stroke-width="1.5">
  <path d="m305.98 285.61 0.80101-0.78917-0.66623-0.49302-0.80034 0.78927 0.66556 0.49292" clip-path="url(#p8cae1d5080)"/>
  <path d="m314.92 240.4 0.36831-0.31663-0.36567-0.2357-0.36817 0.31655 0.36553 0.23578" clip-path="url(#p8cae1d5080)"/>
  <path d="m314.75 249.43 0.37678-0.3336-0.35932-0.24103-0.37663 0.33354 0.35917 0.24109" clip-path="url(#p8cae1d5080)"/>
  <path d="m425.02 197.36 0.77754-0.38345-0.67977-0.45748-0.77803 0.38292 0.68026 0.45801" clip-path="url(#p8cae1d5080)"/>
  <path d="m389.43 155.62 1.6188-0.48561-1.6102-0.57445-1.6197 0.48427 1.611 0.57579" clip-path="url(#p8cae1d5080)"/>
  <path d="m363.55 155.62 1.611-0.57579-1.6197-0.48427-1.6102 0.57445 1.6188 0.48561" clip-path="url(#p8cae1d5080)"/>
 </g>
 <g transform="translate(-102.41 -113.58)" fill="#729cbe" stroke="#3c6f99" stroke-width="2">
  <g fill="#729cbe" stroke="#3c6f99" stroke-linecap="square" stroke-width="2">
   <path d="m248.66 287.71 12.036-13.728-11.013-7.3753-11.735 13.622 10.711 7.4808" clip-path="url(#p8cae1d5080)"/>
   <path d="m313.36 268.22 6.2267-5.7335-5.5924-3.9291-6.1891 5.7273 5.5548 3.9354" clip-path="url(#p8cae1d5080)"/>
   <path d="m455.96 178.48 5.9712-1.7236-5.372-3.3007-6.03 1.6789 5.4308 3.3454" clip-path="url(#p8cae1d5080)"/>
   <path d="m575.79 347.61 16.765-14.67-17.021-30.071-18.024 14.149 18.28 30.592" clip-path="url(#p8cae1d5080)"/>
   <path d="m256.7 328.87 6.1139-7.3472-5.1132-3.8902-6.0431 7.3668 5.0424 3.8707" clip-path="url(#p8cae1d5080)"/>
   <path d="m251.18 330.65 2.9992-3.7123-2.528-1.9381-2.9808 3.7175 2.5096 1.9329" clip-path="url(#p8cae1d5080)"/>
   <path d="m245.45 218.72 5.4118-5.0043-5.3731-2.2264-5.3326 4.9324 5.2939 2.2983" clip-path="url(#p8cae1d5080)"/>
   <path d="m250.4 247 11.583-11.72-11.188-6.0022-11.279 11.488 10.884 6.234" clip-path="url(#p8cae1d5080)"/>
   <path d="m238.83 259.63 11.572-12.636-10.884-6.234-11.252 12.404 10.564 6.4667" clip-path="url(#p8cae1d5080)"/>
   <path d="m233.87 246.86 5.6382-6.0921-5.2962-2.8783-5.556 6.0238 5.214 2.9466" clip-path="url(#p8cae1d5080)"/>
   <path d="m237.95 280.23 11.735-13.622-10.858-6.9736-11.416 13.458 10.539 7.1384" clip-path="url(#p8cae1d5080)"/>
   <path d="m232.18 287.3 5.7681-7.0742-5.2997-3.6188-5.6867 7.0403 5.2184 3.6527" clip-path="url(#p8cae1d5080)"/>
   <path d="m260.7 273.98 24.275-24.969-22.991-13.736-23.155 24.356 21.871 14.349" clip-path="url(#p8cae1d5080)"/>
   <path d="m306.11 284.33 12.712-12.162-11.018-7.8856-12.545 12.16 10.85 7.8878" clip-path="url(#p8cae1d5080)"/>
   <path d="m317.82 282.08 6.3646-5.9646-5.3572-3.9495-6.3304 5.969 5.3231 3.9451" clip-path="url(#p8cae1d5080)"/>
   <path d="m311.4 288.27 6.4199-6.1856-5.3231-3.9451-6.3816 6.1928 5.2848 3.9379" clip-path="url(#p8cae1d5080)"/>
   <path d="m319.59 262.48 6.1434-5.4905-5.626-3.9209-6.1098 5.4822 5.5924 3.9291" clip-path="url(#p8cae1d5080)"/>
   <path d="m314.48 231.52 5.689-4.6659-5.9953-3.5776-5.6514 4.6381 5.9576 3.6054" clip-path="url(#p8cae1d5080)"/>
   <path d="m331.16 218.28 5.2786-3.9153-6.0858-3.4954-5.252 3.8882 6.0592 3.5224" clip-path="url(#p8cae1d5080)"/>
   <path d="m352.77 203.07 5.7446-3.6799-6.1657-3.3798-5.7288 3.6495 6.1499 3.4102" clip-path="url(#p8cae1d5080)"/>
   <path d="m411.26 210.57 6.1095-3.468-5.4262-3.7422-6.131 3.4396 5.4476 3.7706" clip-path="url(#p8cae1d5080)"/>
   <path d="m417.37 207.1 6.1558-3.3357-5.4004-3.7114-6.1815 3.305 5.4262 3.7422" clip-path="url(#p8cae1d5080)"/>
   <path d="m325.64 162.59 6.1123-2.8492-6.2927-1.4938-6.0658 2.8184 6.2462 1.5246" clip-path="url(#p8cae1d5080)"/>
   <path d="m427.34 162.59 6.2462-1.5246-6.0658-2.8184-6.2927 1.4938 6.1123 2.8492" clip-path="url(#p8cae1d5080)"/>
   <path d="m433.34 165.57 6.1961-1.5589-5.9482-2.9452-6.2462 1.5246 5.9983 2.9795" clip-path="url(#p8cae1d5080)"/>
   <path d="m444.63 405.97 12.446-9.8283-13.157-13.781-12.693 10.201 13.404 13.408" clip-path="url(#p8cae1d5080)"/>
   <path d="m308.35 405.97 13.404-13.408-12.693-10.201-13.157 13.781 12.446 9.8283" clip-path="url(#p8cae1d5080)"/>
   <path d="m245.72 332.45 11.975-14.821-10.362-7.7995-11.671 14.873 10.059 7.7475" clip-path="url(#p8cae1d5080)"/>
   <path d="m241.44 317.22 5.8937-7.3893-5.219-3.8829-5.8156 7.3913 5.1409 3.881" clip-path="url(#p8cae1d5080)"/>
   <path d="m236.3 313.34 5.8156-7.3913-5.223-3.8536-5.7357 7.3865 5.143 3.8585" clip-path="url(#p8cae1d5080)"/>
   <path d="m231.16 309.48 5.7357-7.3865-5.2106-3.8105-5.6542 7.3743 5.129 3.8227" clip-path="url(#p8cae1d5080)"/>
   <path d="m234.52 229.46 5.4745-5.4869-5.2126-2.373-5.3916 5.4098 5.1297 2.4502" clip-path="url(#p8cae1d5080)"/>
   <path d="m240 223.97 5.451-5.2472-5.2939-2.2983-5.3698 5.1725 5.2126 2.373" clip-path="url(#p8cae1d5080)"/>
   <path d="m250.86 213.72 10.647-9.2759-10.916-3.9752-10.339 9.0003 10.608 4.2508" clip-path="url(#p8cae1d5080)"/>
   <path d="m261.51 204.44 10.322-8.3087-11.201-3.729-10.036 8.0625 10.916 3.9752" clip-path="url(#p8cae1d5080)"/>
   <path d="m271.83 196.13 9.9042-7.3722-11.462-3.5136-9.6438 7.1569 11.201 3.729" clip-path="url(#p8cae1d5080)"/>
   <path d="m284.97 249.01 45.382-38.147-48.622-22.106-41.736 35.208 44.976 25.044" clip-path="url(#p8cae1d5080)"/>
   <path d="m239.51 240.76 11.279-11.488-10.797-5.3062-10.956 11.208 10.474 5.5855" clip-path="url(#p8cae1d5080)"/>
   <path d="m228.26 253.17 5.6139-6.3116-5.214-2.9466-5.5305 6.2431 5.1306 3.015" clip-path="url(#p8cae1d5080)"/>
   <path d="m228.66 243.91 5.556-6.0238-5.1779-2.7072-5.4722 5.9492 5.0941 2.7818" clip-path="url(#p8cae1d5080)"/>
   <path d="m226.86 254.78 1.3976-1.6108-1.2932-0.76811-1.3924 1.6067 1.288 0.77221" clip-path="url(#p8cae1d5080)"/>
   <path d="m226 274.83 1.4087-1.734-1.2986-0.86293-1.4035 1.731 1.2934 0.8659" clip-path="url(#p8cae1d5080)"/>
   <path d="m227.41 273.09 11.416-13.458-10.564-6.4667-11.084 13.232 10.233 6.6923" clip-path="url(#p8cae1d5080)"/>
   <path d="m226.96 283.65 5.6867-7.0403-5.2397-3.5196-5.604 6.9985 5.157 3.5614" clip-path="url(#p8cae1d5080)"/>
   <path d="m226.5 294.53 5.6781-7.2246-5.2184-3.6527-5.5954 7.1936 5.1357 3.6836" clip-path="url(#p8cae1d5080)"/>
   <path d="m236.89 302.09 11.765-14.382-10.711-7.4808-11.446 14.299 10.392 7.5643" clip-path="url(#p8cae1d5080)"/>
   <path d="m282.62 289.47 25.184-25.186-22.835-15.268-24.275 24.969 21.927 15.485" clip-path="url(#p8cae1d5080)"/>
   <path d="m257.7 317.63 24.924-28.161-21.927-15.485-23.801 28.11 20.804 15.536" clip-path="url(#p8cae1d5080)"/>
   <path d="m280.47 311.07 12.804-13.735-10.651-7.8686-12.574 13.778 10.421 7.8256" clip-path="url(#p8cae1d5080)"/>
   <path d="m269.02 314.28 6.2771-7.113-5.2456-3.9195-6.2126 7.126 5.181 3.9065" clip-path="url(#p8cae1d5080)"/>
   <path d="m262.81 321.52 6.2049-7.2409-5.181-3.9065-6.1371 7.2572 5.1132 3.8902" clip-path="url(#p8cae1d5080)"/>
   <path d="m274.13 318.17 6.3385-7.0951-5.1751-3.9061-6.2771 7.113 5.1138 3.8882" clip-path="url(#p8cae1d5080)"/>
   <path d="m293.27 297.34 12.839-13.008-10.85-7.8878-12.639 13.027 10.651 7.8686" clip-path="url(#p8cae1d5080)"/>
   <path d="m324.18 276.12 6.2907-5.7338-5.3874-3.9513-6.2606 5.7356 5.3572 3.9495" clip-path="url(#p8cae1d5080)"/>
   <path d="m318.82 272.17 6.2606-5.7356-5.4965-3.9482-6.2267 5.7335 5.4627 3.9502" clip-path="url(#p8cae1d5080)"/>
   <path d="m307.81 264.28 12.299-11.21-11.493-7.7057-12.133 11.154 11.327 7.7616" clip-path="url(#p8cae1d5080)"/>
   <path d="m296.48 256.52 12.133-11.154-11.705-7.4112-11.936 11.059 11.508 7.5063" clip-path="url(#p8cae1d5080)"/>
   <path d="m308.61 245.37 11.783-10.145-11.871-7.3101-11.617 10.044 11.705 7.4112" clip-path="url(#p8cae1d5080)" fill="#729cbe" stroke="#3c6f99" stroke-width="2"/>
   <path d="m314.39 249.19 5.9805-5.2183-5.8187-3.8062-5.943 5.2 5.7813 3.8245" clip-path="url(#p8cae1d5080)"/>
   <path d="m320.4 235.22 5.7227-4.6898-5.9472-3.6808-5.689 4.6659 5.9136 3.7047" clip-path="url(#p8cae1d5080)"/>
   <path d="m320.17 226.85 5.563-4.4119-6.0291-3.5498-5.5292 4.3842 5.9953 3.5776" clip-path="url(#p8cae1d5080)"/>
   <path d="m325.73 222.44 5.4257-4.1612-6.0592-3.5224-5.3956 4.1337 6.0291 3.5498" clip-path="url(#p8cae1d5080)"/>
   <path d="m336.44 214.36 5.2856-3.7901-6.1095-3.468-5.2618 3.7627 6.0858 3.4954" clip-path="url(#p8cae1d5080)"/>
   <path d="m341.72 210.57 5.4476-3.7706-6.131-3.4396-5.4262 3.7422 6.1095 3.468" clip-path="url(#p8cae1d5080)"/>
   <path d="m347.17 206.8 5.6011-3.7341-6.1499-3.4102-5.5823 3.7046 6.131 3.4396" clip-path="url(#p8cae1d5080)"/>
   <path d="m358.85 206.6 5.7561-3.7083-6.0891-3.5015-5.7446 3.6799 6.0776 3.53" clip-path="url(#p8cae1d5080)"/>
   <path d="m376.49 210.19 24.14-14.179-24.14-13.691-24.14 13.691 24.14 14.179" clip-path="url(#p8cae1d5080)"/>
   <path d="m399.75 210.36 12.194-6.9968-11.311-7.3542-12.255 6.8813 11.372 7.4697" clip-path="url(#p8cae1d5080)"/>
   <path d="m423.52 203.77 6.1836-3.1874-5.3704-3.6783-6.2137 3.1542 5.4004 3.7114" clip-path="url(#p8cae1d5080)"/>
   <path d="m411.94 203.36 12.395-6.4592-11.215-7.2229-12.492 6.3279 11.311 7.3542" clip-path="url(#p8cae1d5080)"/>
   <path d="m424.34 196.9 12.448-5.7977-11.081-7.0765-12.582 5.6513 11.215 7.2229" clip-path="url(#p8cae1d5080)"/>
   <path d="m449.13 186.07 12.098-4.1968-10.698-6.7425-12.308 4.0234 10.908 6.9159" clip-path="url(#p8cae1d5080)"/>
   <path d="m436.79 191.11 12.348-5.0342-10.908-6.9159-12.52 4.8736 11.081 7.0765" clip-path="url(#p8cae1d5080)"/>
   <path d="m425.71 184.03 24.829-8.897-23.192-12.546-25.476 8.3018 23.839 13.141" clip-path="url(#p8cae1d5080)"/>
   <path d="m400.63 196.01 25.074-11.979-23.839-13.141-25.375 11.429 24.14 13.691" clip-path="url(#p8cae1d5080)"/>
   <path d="m376.49 182.32 25.375-11.429-25.375-10.92-25.375 10.92 25.375 11.429" clip-path="url(#p8cae1d5080)"/>
   <path d="m401.87 170.89 25.476-8.3018-24.994-10.476-25.857 7.8571 25.375 10.92" clip-path="url(#p8cae1d5080)"/>
   <path d="m376.49 159.97 12.94-4.3499-12.94-4.2633-12.94 4.2633 12.94 4.3499" clip-path="url(#p8cae1d5080)"/>
   <path d="m351.12 170.89 25.375-10.92-25.857-7.8571-24.994 10.476 25.476 8.3018" clip-path="url(#p8cae1d5080)"/>
   <path d="m330.35 210.87 46.139-28.55-50.85-19.731-43.91 26.176 48.622 22.106" clip-path="url(#p8cae1d5080)" fill="#729cbe" stroke="#3c6f99" stroke-width="2"/>
   <path d="m281.73 188.76 10.021-6.8872-11.71-3.3174-9.7725 6.691 11.462 3.5136" clip-path="url(#p8cae1d5080)"/>
   <path d="m291.75 181.87 10.698-6.7425-11.955-3.1328-10.452 6.5579 11.71 3.3174" clip-path="url(#p8cae1d5080)"/>
   <path d="m302.45 175.13 11.321-6.4719-12.191-2.9659-11.086 6.305 11.955 3.1328" clip-path="url(#p8cae1d5080)"/>
   <path d="m313.77 168.66 5.872-3.0946-6.1961-1.5589-5.8188 3.0573 6.143 1.5962" clip-path="url(#p8cae1d5080)"/>
   <path d="m319.64 165.57 5.9983-2.9795-6.2462-1.5246-5.9482 2.9452 6.1961 1.5589" clip-path="url(#p8cae1d5080)"/>
   <path d="m439.21 168.66 6.143-1.5962-5.8188-3.0573-6.1961 1.5589 5.872 3.0946" clip-path="url(#p8cae1d5080)"/>
   <path d="m450.53 175.13 11.955-3.1328-11.086-6.305-12.191 2.9659 11.321 6.4719" clip-path="url(#p8cae1d5080)"/>
   <path d="m557.68 446.67 7e-3 -6e-3 -7e-3 -0.0122-7e-3 6e-3 7e-3 0.0122" clip-path="url(#p8cae1d5080)"/>
   <path d="m557.68 446.68 7e-3 -6e-3 -7e-3 -0.0122-7e-3 6e-3 7e-3 0.0122" clip-path="url(#p8cae1d5080)"/>
   <path d="m376.49 520.11 13.487-9.1071-13.487-9.5642-13.487 9.5642 13.487 9.1071" clip-path="url(#p8cae1d5080)"/>
   <path d="m297.59 503.4 11.966-10.182-13.059-9.087-11.613 10.628 12.706 8.6403" clip-path="url(#p8cae1d5080)"/>
   <path d="m310.05 502.81 6.1388-5.037-6.6349-4.5536-6.061 5.1504 6.5571 4.4401" clip-path="url(#p8cae1d5080)"/>
   <path d="m316.67 507.24 6.2104-4.9238-6.6865-4.5467-6.1388 5.037 6.6148 4.4336" clip-path="url(#p8cae1d5080)"/>
   <path d="m322.88 502.32 26.099-20.682-27.401-20.094-25.078 22.589 26.38 18.187" clip-path="url(#p8cae1d5080)"/>
   <path d="m349.37 501.66 13.417-10.038-13.808-9.9811-13.28 10.521 13.671 9.4972" clip-path="url(#p8cae1d5080)"/>
   <path d="m336.35 511.35 13.021-9.696-13.671-9.4972-12.819 10.16 13.47 9.0328" clip-path="url(#p8cae1d5080)"/>
   <path d="m349.6 511.13 6.6002-4.7794-6.8308-4.6949-6.5658 4.8949 6.7963 4.5794" clip-path="url(#p8cae1d5080)"/>
   <path d="m363 511 13.487-9.5642-13.708-9.8141-13.417 10.038 13.638 9.3407" clip-path="url(#p8cae1d5080)"/>
   <path d="m376.49 501.43 54.917-39.889-54.917-47.868-54.917 47.868 54.917 39.889" clip-path="url(#p8cae1d5080)"/>
   <path d="m430.11 502.32 26.38-18.187-25.078-22.589-27.401 20.094 26.099 20.682" clip-path="url(#p8cae1d5080)"/>
   <path d="m403.62 501.66 13.671-9.4972-13.28-10.521-13.808 9.9811 13.417 10.038" clip-path="url(#p8cae1d5080)"/>
   <path d="m389.98 511 13.638-9.3407-13.417-10.038-13.708 9.8141 13.487 9.5642" clip-path="url(#p8cae1d5080)"/>
   <path d="m403.39 511.13 6.7963-4.5794-6.5658-4.8949-6.8308 4.6949 6.6002 4.7794" clip-path="url(#p8cae1d5080)"/>
   <path d="m416.64 511.35 13.47-9.0328-12.819-10.16-13.671 9.4972 13.021 9.696" clip-path="url(#p8cae1d5080)"/>
   <path d="m442.38 512.06 13.01-8.6528-11.966-10.182-13.321 9.1003 12.277 9.7342" clip-path="url(#p8cae1d5080)"/>
   <path d="m455.39 503.4 12.706-8.6403-11.613-10.628-13.059 9.087 11.966 10.182" clip-path="url(#p8cae1d5080)"/>
   <path d="m479.03 504.87 44.324-31.443-41.448-49.987-50.497 38.105 47.621 43.325" clip-path="url(#p8cae1d5080)"/>
   <path d="m523.35 473.43 34.321-26.764-35.568-54.719-40.201 31.497 41.448 49.987" clip-path="url(#p8cae1d5080)"/>
   <path d="m481.91 423.44 21.584-16.766-23.523-28.593-22.887 18.063 24.826 27.296" clip-path="url(#p8cae1d5080)"/>
   <path d="m503.49 406.67 18.617-14.731-22.267-29.533-19.873 15.671 23.523 28.593" clip-path="url(#p8cae1d5080)"/>
   <path d="m457.08 396.14 0.75724-0.59786-0.80911-0.86324-0.75833 0.59925 0.8102 0.86185" clip-path="url(#p8cae1d5080)"/>
   <path d="m431.63 416.24 13.001-10.271-13.404-13.408-13.217 10.686 13.62 12.994" clip-path="url(#p8cae1d5080)"/>
   <path d="m457.67 441.91 24.235-18.471-24.826-27.296-25.447 20.1 26.038 25.667" clip-path="url(#p8cae1d5080)"/>
   <path d="m431.41 461.54 26.262-19.634-26.038-25.667-27.212 21.512 26.988 23.79" clip-path="url(#p8cae1d5080)"/>
   <path d="m404.42 437.76 27.212-21.512-27.455-25.903-27.686 23.336 27.929 24.079" clip-path="url(#p8cae1d5080)"/>
   <path d="m376.49 413.68 6.9922-5.9438-6.9922-6.0573-6.9922 6.0573 6.9922 5.9438" clip-path="url(#p8cae1d5080)"/>
   <path d="m271.08 423.44 24.826-27.296-22.887-18.063-23.523 28.593 21.584 16.766" clip-path="url(#p8cae1d5080)"/>
   <path d="m295.9 396.14 0.8102-0.86185-0.75833-0.59925-0.8091 0.86324 0.75723 0.59786" clip-path="url(#p8cae1d5080)"/>
   <path d="m321.35 416.24 13.62-12.994-13.217-10.686-13.404 13.408 13.001 10.271" clip-path="url(#p8cae1d5080)"/>
   <path d="m348.56 437.76 27.929-24.079-27.686-23.336-27.455 25.903 27.212 21.512" clip-path="url(#p8cae1d5080)"/>
   <path d="m321.57 461.54 26.988-23.79-27.212-21.512-26.038 25.667 26.262 19.634" clip-path="url(#p8cae1d5080)"/>
   <path d="m295.31 441.91 26.038-25.667-25.447-20.1-24.826 27.296 24.235 18.471" clip-path="url(#p8cae1d5080)"/>
   <path d="m273.95 504.87 47.621-43.325-50.497-38.105-41.448 49.987 44.324 31.443" clip-path="url(#p8cae1d5080)"/>
   <path d="m229.63 473.43 9.2338-11.687-9.9865-7.5667-8.8229 12.026 9.5756 7.2273" clip-path="url(#p8cae1d5080)"/>
   <path d="m238.86 461.74 9.9968-12.273-10.39-7.9145-9.5929 12.621 9.9865 7.5667" clip-path="url(#p8cae1d5080)"/>
   <path d="m248.86 449.47 22.218-26.027-21.584-16.766-20.717 27.365 20.083 15.427" clip-path="url(#p8cae1d5080)"/>
   <path d="m550.17 210.43 14.221-2.3821-17.385-15.455-15.65 0.91288 18.814 16.924" clip-path="url(#p8cae1d5080)"/>
   <path d="m564.39 208.05 5.9996-0.28535-8.4171-7.7152-6.3544-0.10413 8.7719 8.1047" clip-path="url(#p8cae1d5080)"/>
   <path d="m570.39 207.76 5.3024 0.21879-8.0686-7.3322-5.6509-0.60182 8.4171 7.7152" clip-path="url(#p8cae1d5080)"/>
   <path d="m587.75 254.07 20.302-10.055-32.361-36.031-25.523 2.4487 37.582 43.637" clip-path="url(#p8cae1d5080)"/>
   <path d="m553.44 237.57 15.811-6.8742-19.08-20.27-17.226 5.2167 20.496 21.928" clip-path="url(#p8cae1d5080)"/>
   <path d="m573.26 262.74 14.488-8.6724-18.502-23.367-15.811 6.8742 19.825 25.165" clip-path="url(#p8cae1d5080)"/>
   <path d="m556.05 273.91 17.215-11.173-19.825-25.165-18.574 9.7211 21.184 26.617" clip-path="url(#p8cae1d5080)"/>
   <path d="m544.46 242.08 8.9719-4.5096-10.225-11.402-9.3214 4.1304 10.574 11.781" clip-path="url(#p8cae1d5080)"/>
   <path d="m533.89 230.3 9.3214-4.1304-10.271-10.526-9.6694 3.7704 10.619 10.886" clip-path="url(#p8cae1d5080)"/>
   <path d="m532.94 215.65 17.226-5.2167-18.814-16.924-18.623 3.8253 20.211 18.315" clip-path="url(#p8cae1d5080)"/>
   <path d="m551.38 277.06 4.6691-3.1513-5.1733-6.9173-4.7537 3.0799 5.2579 6.9887" clip-path="url(#p8cae1d5080)"/>
   <path d="m557.51 317.02 18.024-14.149-19.486-28.959-19.356 13.333 20.818 29.775" clip-path="url(#p8cae1d5080)"/>
   <path d="m557.89 362.76 17.897-15.151-18.28-30.592-19.254 15.137 19.636 30.606" clip-path="url(#p8cae1d5080)"/>
   <path d="m538.25 332.16 9.722-7.6459-10.475-15.164-10.061 7.6207 10.814 15.19" clip-path="url(#p8cae1d5080)"/>
   <path d="m547.98 324.51 9.5322-7.4915-10.135-15.077-9.8718 7.4037 10.475 15.164" clip-path="url(#p8cae1d5080)"/>
   <path d="m522.11 391.94 17.616-14.206-20.997-30.208-18.887 14.881 22.267 29.533" clip-path="url(#p8cae1d5080)"/>
   <path d="m539.72 377.74 18.167-14.974-19.636-30.606-19.528 15.371 20.997 30.208" clip-path="url(#p8cae1d5080)"/>
   <path d="m557.68 446.66 30.386-26.097-30.171-57.802-35.783 29.18 35.568 54.719" clip-path="url(#p8cae1d5080)"/>
   <path d="m588.06 420.56 29.866-29.021-25.374-58.602-34.662 29.821 30.171 57.802" clip-path="url(#p8cae1d5080)"/>
   <path d="m612.67 377.41 6.9896-7.2871-5.7446-14.491-7.2143 7.2264 5.9693 14.552" clip-path="url(#p8cae1d5080)"/>
   <path d="m619.66 370.12 6.5315-7.1268-5.5545-14.372-6.7216 7.0069 5.7446 14.491" clip-path="url(#p8cae1d5080)"/>
   <path d="m620.64 348.62 11.748-13.123-12.522-28.085-12.439 11.963 13.213 29.245" clip-path="url(#p8cae1d5080)"/>
   <path d="m606.7 362.86 13.936-14.233-13.213-29.245-14.87 13.562 14.147 29.916" clip-path="url(#p8cae1d5080)"/>
   <path d="m592.55 332.94 27.308-25.526-32.111-53.349-31.704 19.845 36.506 59.029" clip-path="url(#p8cae1d5080)"/>
   <path d="m619.86 307.42 9.7721-10.08-14.265-25.599-10.523 8.1949 15.016 27.484" clip-path="url(#p8cae1d5080)"/>
   <path d="m604.85 279.93 10.523-8.1949-16.064-23.83-11.554 6.1596 17.095 25.865" clip-path="url(#p8cae1d5080)"/>
   <path d="m615.37 271.74 4.2247-3.2781-7.6195-11.649-4.4477 2.7426 7.8425 12.184" clip-path="url(#p8cae1d5080)"/>
   <path d="m607.53 259.55 4.4477-2.7426-7.9631-11.111-4.7065 2.2079 8.2219 11.646" clip-path="url(#p8cae1d5080)"/>
   <path d="m626.45 321.45 5.0755-5.6792-6.4407-13.637-5.2221 5.2844 6.5872 14.031" clip-path="url(#p8cae1d5080)"/>
   <path d="m459.27 175.1 2.9612-0.76637-2.6906-1.6319-2.9767 0.75511 2.7061 1.6432" clip-path="url(#p8cae1d5080)"/>
  </g>
 </g>
 <g transform="translate(-102.41 -113.58)" fill="none" stroke="#ffd43b" stroke-linecap="square" stroke-width="1.5">
  <path d="m301.23 158.29 0.72877-0.34982-0.73688-0.0937-0.72772 0.34931 0.73583 0.0942" clip-path="url(#p8cae1d5080)"/>
  <path d="m315.96 138.47 12.199-2.3052-10.943 1.7375-11.921 2.4386 10.666-1.871" clip-path="url(#p8cae1d5080)"/>
  <path d="m451.75 158.29 0.73582-0.0942-0.72772-0.34931-0.73688 0.0937 0.72878 0.34982" clip-path="url(#p8cae1d5080)"/>
  <path d="m504.02 163.55 8.4602 1.6344-9.6495-5.0383-8.8467-1.7872 10.036 5.1911" clip-path="url(#p8cae1d5080)"/>
  <path d="m208.38 182.56-6e-3 2e-3 -7e-3 5e-3 6e-3 -2e-3 7e-3 -5e-3" clip-path="url(#p8cae1d5080)"/>
  <path d="m208.38 182.56-6e-3 2e-3 -7e-3 5e-3 6e-3 -2e-3 7e-3 -5e-3" clip-path="url(#p8cae1d5080)"/>
  <path d="m370.33 291.32 0.38912-0.33165-0.38033-0.31628-0.38911 0.33173 0.38032 0.3162" clip-path="url(#p8cae1d5080)"/>
  <path d="m326.38 301.18 0.8184-0.78193-0.68653-0.53804-0.81791 0.78229 0.68604 0.53768" clip-path="url(#p8cae1d5080)"/>
  <path d="m445.42 212.18 0.75998-0.40023-0.67184-0.52159-0.76065 0.39966 0.67251 0.52216" clip-path="url(#p8cae1d5080)"/>
  <path d="m526.98 274.83 1.2934-0.8659-1.4035-1.731-1.2986 0.86293 1.4087 1.734" clip-path="url(#p8cae1d5080)"/>
 </g>
 <g transform="translate(-102.41 -113.58)" fill="#fd6" stroke="#998023" stroke-linecap="square" stroke-width="2">
  <path d="m195.15 385.27 9.0483-14.957-9.1036-7.5486-8.7027 15.078 8.758 7.4267" clip-path="url(#p8cae1d5080)"/>
  <path d="m138.6 334.04 6.9577-14.664-6.5452-6.2046-6.7586 14.376 6.3461 6.4925" clip-path="url(#p8cae1d5080)"/>
  <path d="m132.26 327.55 6.7586-14.376-5.8934-5.7588-6.5872 14.031 5.722 6.1036" clip-path="url(#p8cae1d5080)"/>
  <path d="m129.13 334.74 3.1254-7.1848-2.9408-3.1029-3.0858 7.1117 2.9013 3.176" clip-path="url(#p8cae1d5080)"/>
  <g fill="#fd6" stroke="#998023" stroke-width="2">
   <path d="m348.99 378.27 6.9246-6.3928-6.6934-5.6617-6.8991 6.4813 6.6679 5.5732" clip-path="url(#p8cae1d5080)"/>
   <path d="m404 378.27 6.6679-5.5732-6.8991-6.4813-6.6934 5.6617 6.9246 6.3928" clip-path="url(#p8cae1d5080)"/>
   <path d="m397.23 383.96 6.7691-5.6987-6.9246-6.3928-6.7889 5.7924 6.9444 6.2992" clip-path="url(#p8cae1d5080)"/>
   <path d="m376.49 296.5 6.162-5.1783-6.162-5.2-6.162 5.2 6.162 5.1783" clip-path="url(#p8cae1d5080)"/>
   <path d="m382.65 291.32 0.38032-0.3162-0.38911-0.33173-0.38033 0.31628 0.38912 0.33165" clip-path="url(#p8cae1d5080)"/>
   <path d="m418.29 284.08 5.2741-4.0292-6.3172-5.7284-5.2979 4.038 6.341 5.7197" clip-path="url(#p8cae1d5080)"/>
   <path d="m325.28 322.19 13.294-12.74-11.377-9.0567-13.159 12.867 11.243 8.9294" clip-path="url(#p8cae1d5080)"/>
   <path d="m338.57 309.45 13.062-11.972-11.474-9.1541-12.965 12.07 11.377 9.0567" clip-path="url(#p8cae1d5080)"/>
   <path d="m292.09 356.55 6.5491-7.0809-5.525-4.3827-6.4896 7.1348 5.4655 4.3287" clip-path="url(#p8cae1d5080)"/>
   <path d="m288.85 360.11 3.2445-3.5653-2.7567-2.1857-3.2288 3.5798 2.741 2.1712" clip-path="url(#p8cae1d5080)"/>
   <path d="m485.84 206.74 5.6426-2.2978-5.2078-4.2738-5.7109 2.2391 5.2761 4.3325" clip-path="url(#p8cae1d5080)"/>
   <path d="m433.28 218.89 6.0632-3.4262-5.3614-4.1031-6.0974 3.3956 5.3956 4.1337" clip-path="url(#p8cae1d5080)"/>
   <path d="m427.25 222.44 6.0291-3.5498-5.3956-4.1337-6.0592 3.5224 5.4257 4.1612" clip-path="url(#p8cae1d5080)"/>
   <path d="m423.56 280.05 5.2397-3.9338-6.2907-5.7338-5.2662 3.9391 6.3172 5.7284" clip-path="url(#p8cae1d5080)"/>
   <path d="m428.8 276.12 5.3572-3.9495-6.2606-5.7356-5.3874 3.9513 6.2907 5.7338" clip-path="url(#p8cae1d5080)"/>
   <g fill="#fd6" stroke="#998023" stroke-width="2">
    <path d="m325.37 154.33 12.515-4.8387-12.455-1.7322-12.309 4.7646 12.249 1.8063" clip-path="url(#p8cae1d5080)"/>
    <path d="m313.23 159.76 12.135-5.4386-12.249-1.8063-11.897 5.3272 12.011 1.9178" clip-path="url(#p8cae1d5080)"/>
    <path d="m376.49 147.72 6.4873-1.6035-6.4873-1.5967-6.4873 1.5967 6.4873 1.6035" clip-path="url(#p8cae1d5080)"/>
    <path d="m326.39 139.34 25.172-4.794-23.402 1.6204-24.249 5.2342 22.48-2.0605" clip-path="url(#p8cae1d5080)"/>
    <path d="m351.56 134.55 24.933-1.8985-23.886 0.85322-24.448 2.6656 23.402-1.6204" clip-path="url(#p8cae1d5080)"/>
    <path d="m350.63 152.11 25.857-7.5955-25.654-4.261-25.41 7.5001 25.207 4.3564" clip-path="url(#p8cae1d5080)"/>
    <path d="m325.43 147.75 25.41-7.5001-24.45-0.91175-24.525 7.5122 23.565 0.89974" clip-path="url(#p8cae1d5080)"/>
    <path d="m303.91 141.4 12.05-2.929-10.666 1.871-11.732 3.0131 10.347-1.955" clip-path="url(#p8cae1d5080)"/>
    <path d="m376.49 132.65 12.118 0.1027-12.118-0.12447-12.118 0.12447 12.118-0.1027" clip-path="url(#p8cae1d5080)"/>
    <path d="m402.35 152.11 25.207-4.3564-25.41-7.5001-25.654 4.261 25.857 7.5955" clip-path="url(#p8cae1d5080)"/>
    <path d="m376.49 144.51 50.104-5.1728-50.104-6.6925-50.104 6.6925 50.104 5.1728" clip-path="url(#p8cae1d5080)"/>
    <path d="m401.42 134.55 23.402 1.6204-24.448-2.6656-23.886-0.85322 24.933 1.8985" clip-path="url(#p8cae1d5080)"/>
    <path d="m426.6 139.34 22.48 2.0605-24.249-5.2342-23.402-1.6204 25.172 4.794" clip-path="url(#p8cae1d5080)"/>
    <path d="m449.08 141.4 10.347 1.955-11.732-3.0131-10.666-1.871 12.05 2.929" clip-path="url(#p8cae1d5080)"/>
    <path d="m437.03 138.47 10.666 1.871-11.921-2.4386-10.943-1.7375 12.199 2.3052" clip-path="url(#p8cae1d5080)"/>
    <path d="m474.18 156.6 36.796 5.8102-41.838-16.595-42.537-6.4704 47.579 17.255" clip-path="url(#p8cae1d5080)"/>
    <path d="m427.56 147.75 23.565-0.89974-24.525-7.5122-24.45 0.91175 25.41 7.5001" clip-path="url(#p8cae1d5080)"/>
    <path d="m427.62 154.33 12.249-1.8063-12.309-4.7646-12.455 1.7322 12.515 4.8387" clip-path="url(#p8cae1d5080)"/>
    <path d="m439.75 159.76 12.011-1.9178-11.897-5.3272-12.249 1.8063 12.135 5.4386" clip-path="url(#p8cae1d5080)"/>
    <path d="m451.76 157.85 22.413-1.2488-23.054-9.7427-23.565 0.89974 24.206 10.092" clip-path="url(#p8cae1d5080)"/>
    <path d="m473.97 169.76 21.149-1.901-20.941-11.266-22.413 1.2488 22.206 11.918" clip-path="url(#p8cae1d5080)"/>
    <path d="m495.12 167.86 18.36 1.0881-19.492-10.597-19.81-1.7575 20.941 11.266" clip-path="url(#p8cae1d5080)"/>
    <path d="m512.48 165.18 7.747 2.1116-9.257-4.8844-8.1395-2.2655 9.6495 5.0383" clip-path="url(#p8cae1d5080)"/>
    <path d="m168.8 424.05 3.1873-6.7383-3.9564-3.5328-3.1058 6.7853 3.8749 3.4858" clip-path="url(#p8cae1d5080)"/>
    <path d="m171.99 417.31 3.3724-6.8882-4.039-3.5776-3.2899 6.933 3.9564 3.5328" clip-path="url(#p8cae1d5080)"/>
    <path d="m179.4 413.95 7.4861-14.101-8.415-7.2785-7.1484 14.272 8.0772 7.1076" clip-path="url(#p8cae1d5080)"/>
    <path d="m195.17 390.78 2.162-3.676-2.1871-1.8343-2.1403 3.686 2.1655 1.8242" clip-path="url(#p8cae1d5080)"/>
    <path d="m186.88 399.85 8.2668-14.585-8.758-7.4267-7.9238 14.733 8.415 7.2785" clip-path="url(#p8cae1d5080)"/>
    <path d="m203.87 392.54 9.3934-14.798-9.0637-7.4253-9.0483 14.957 8.7186 7.267" clip-path="url(#p8cae1d5080)"/>
    <path d="m215.34 332.64 0.65937-0.95506-0.61245-0.48087-0.65805 0.95515 0.61113 0.48078" clip-path="url(#p8cae1d5080)"/>
    <path d="m213.26 377.74 20.997-30.208-19.528-15.371-19.636 30.606 18.167 14.974" clip-path="url(#p8cae1d5080)"/>
    <path d="m195.09 362.76 19.636-30.606-19.254-15.137-18.28 30.592 17.897 15.151" clip-path="url(#p8cae1d5080)"/>
    <path d="m214.73 332.16 10.814-15.19-10.061-7.6207-10.475 15.164 9.722 7.6459" clip-path="url(#p8cae1d5080)"/>
    <path d="m205.01 324.51 10.475-15.164-9.8718-7.4037-10.135 15.077 9.5322 7.4915" clip-path="url(#p8cae1d5080)"/>
    <path d="m195.48 317.02 20.818-29.775-19.356-13.333-19.486 28.959 18.024 14.149" clip-path="url(#p8cae1d5080)"/>
    <path d="m177.2 347.61 18.28-30.592-18.024-14.149-17.021 30.071 16.765 14.67" clip-path="url(#p8cae1d5080)"/>
    <path d="m164.92 420.56 30.171-57.802-34.662-29.821-25.374 58.602 29.866 29.021" clip-path="url(#p8cae1d5080)"/>
    <path d="m133.33 370.12 5.7446-14.491-6.7216-7.0069-5.5545 14.372 6.5315 7.1268" clip-path="url(#p8cae1d5080)"/>
    <path d="m140.31 377.41 5.9693-14.552-7.2143-7.2264-5.7446 14.491 6.9896 7.2871" clip-path="url(#p8cae1d5080)"/>
    <path d="m146.28 362.86 14.147-29.916-14.87-13.562-13.213 29.245 13.936 14.233" clip-path="url(#p8cae1d5080)"/>
    <path d="m132.35 348.62 6.2556-14.581-6.3461-6.4925-6.08 14.346 6.1706 6.7272" clip-path="url(#p8cae1d5080)"/>
    <path d="m126.54 321.45 6.5872-14.031-5.2221-5.2844-6.4407 13.637 5.0755 5.6792" clip-path="url(#p8cae1d5080)"/>
    <path d="m133.12 307.42 15.016-27.484-10.523-8.1949-14.265 25.599 9.7721 10.08" clip-path="url(#p8cae1d5080)"/>
    <path d="m137.62 271.74 7.8426-12.184-4.4477-2.7426-7.6195 11.649 4.2247 3.2781" clip-path="url(#p8cae1d5080)"/>
    <path d="m145.46 259.55 8.2219-11.646-4.7065-2.2079-7.9631 11.111 4.4477 2.7426" clip-path="url(#p8cae1d5080)"/>
    <path d="m148.14 279.93 17.095-25.865-11.554-6.1596-16.064 23.83 10.523 8.1949" clip-path="url(#p8cae1d5080)"/>
    <path d="m160.43 332.94 36.506-59.029-31.704-19.845-32.111 53.349 27.308 25.526" clip-path="url(#p8cae1d5080)"/>
    <path d="m196.94 273.91 21.184-26.617-18.574-9.7211-19.825 25.165 17.215 11.173" clip-path="url(#p8cae1d5080)"/>
    <path d="m219.09 230.3 10.619-10.886-9.6694-3.7704-10.271 10.526 9.3214 4.1304" clip-path="url(#p8cae1d5080)"/>
    <path d="m208.52 242.08 10.574-11.781-9.3214-4.1304-10.225 11.402 8.9719 4.5096" clip-path="url(#p8cae1d5080)"/>
    <path d="m199.55 237.57 20.496-21.928-17.226-5.2167-19.08 20.27 15.811 6.8742" clip-path="url(#p8cae1d5080)"/>
    <path d="m179.72 262.74 19.825-25.165-15.811-6.8742-18.502 23.367 14.488 8.6724" clip-path="url(#p8cae1d5080)"/>
    <path d="m165.23 254.07 37.582-43.637-25.523-2.4487-32.361 36.031 20.302 10.055" clip-path="url(#p8cae1d5080)"/>
    <path d="m202.82 210.43 36.622-30.573-31.063 2.7044-31.082 25.42 25.523 2.4487" clip-path="url(#p8cae1d5080)"/>
    <path d="m240.25 197.33 19.089-14.721-19.905-2.7526-17.808 13.649 18.623 3.8253" clip-path="url(#p8cae1d5080)"/>
    <path d="m220.04 215.65 20.211-18.315-18.623-3.8253-18.814 16.924 17.226 5.2167" clip-path="url(#p8cae1d5080)"/>
    <path d="m220.63 215.86 0.64207-0.62929-0.58618-0.21117-0.6407 0.62787 0.58481 0.21259" clip-path="url(#p8cae1d5080)"/>
    <path d="m201.61 277.06 5.2579-6.9887-4.7537-3.0799-5.1733 6.9173 4.6691 3.1513" clip-path="url(#p8cae1d5080)"/>
    <path d="m279.02 169.76 22.206-11.918-22.413-1.2488-20.941 11.266 21.149 1.901" clip-path="url(#p8cae1d5080)"/>
    <path d="m259.34 182.61 19.673-12.846-21.149-1.901-18.429 11.995 19.905 2.7526" clip-path="url(#p8cae1d5080)"/>
    <path d="m239.44 179.86 39.37-23.261-36.796 5.8102-33.637 20.155 31.063-2.7044" clip-path="url(#p8cae1d5080)"/>
    <path d="m278.81 156.6 47.579-17.255-42.537 6.4704-41.838 16.595 36.796-5.8102" clip-path="url(#p8cae1d5080)"/>
    <path d="m301.22 157.85 24.206-10.092-23.565-0.89974-23.054 9.7427 22.413 1.2488" clip-path="url(#p8cae1d5080)"/>
    <path d="m477.97 355.31 9.8208-7.7111-12.518-14.598-10.07 7.8749 12.767 14.435" clip-path="url(#p8cae1d5080)"/>
    <path d="m467.36 363.69 10.609-8.3781-12.767-14.435-10.857 8.5881 13.015 14.225" clip-path="url(#p8cae1d5080)"/>
    <path d="m455.99 372.72 11.365-9.0279-13.015-14.225-11.605 9.2862 13.255 13.966" clip-path="url(#p8cae1d5080)"/>
    <path d="m443.39 370.53 6.0102-4.8225-6.664-6.9547-6.0646 4.8947 6.7183 6.8824" clip-path="url(#p8cae1d5080)"/>
    <path d="m437.22 375.51 6.1747-4.9761-6.7183-6.8824-6.2262 5.0544 6.7697 6.8042" clip-path="url(#p8cae1d5080)"/>
    <path d="m430.89 380.63 6.3282-5.122-6.7697-6.8042-6.3762 5.2062 6.8177 6.72" clip-path="url(#p8cae1d5080)"/>
    <path d="m390.31 380.69 1.7092-1.461-1.7345-1.5666-1.7101 1.4669 1.7353 1.5607" clip-path="url(#p8cae1d5080)"/>
    <path d="m376.49 389.59 13.792-11.921-13.792-12.299-13.792 12.299 13.792 11.921" clip-path="url(#p8cae1d5080)"/>
    <path d="m362.67 380.69 1.7353-1.5607-1.7101-1.4669-1.7345 1.5666 1.7092 1.461" clip-path="url(#p8cae1d5080)"/>
    <path d="m355.76 383.96 6.9444-6.2992-6.7889-5.7924-6.9246 6.3928 6.7691 5.6987" clip-path="url(#p8cae1d5080)"/>
    <path d="m342.06 384.74 6.9229-6.4731-6.6679-5.5732-6.8906 6.5652 6.6356 5.4811" clip-path="url(#p8cae1d5080)"/>
    <path d="m335.43 379.26 13.79-13.047-13.034-10.883-13.645 13.374 12.889 10.555" clip-path="url(#p8cae1d5080)"/>
    <path d="m349.22 366.21 13.742-12.638-13.128-11.179-13.648 12.934 13.034 10.883" clip-path="url(#p8cae1d5080)"/>
    <path d="m362.7 377.67 13.792-12.299-13.533-11.793-13.742 12.638 13.482 11.454" clip-path="url(#p8cae1d5080)"/>
    <path d="m376.49 365.37 26.66-22.973-26.66-24.012-26.66 24.012 26.66 22.973" clip-path="url(#p8cae1d5080)"/>
    <path d="m403.77 366.21 13.034-10.883-13.648-12.934-13.128 11.179 13.742 12.638" clip-path="url(#p8cae1d5080)"/>
    <path d="m390.28 377.67 13.482-11.454-13.742-12.638-13.533 11.793 13.792 12.299" clip-path="url(#p8cae1d5080)"/>
    <path d="m410.92 384.74 6.6356-5.4811-6.8906-6.5652-6.6679 5.5732 6.9229 6.4731" clip-path="url(#p8cae1d5080)"/>
    <path d="m417.56 379.26 12.889-10.555-13.645-13.374-13.034 10.883 13.79 13.047" clip-path="url(#p8cae1d5080)"/>
    <path d="m430.45 368.7 44.823-35.698-51.706-52.954-47.07 38.331 53.953 50.321" clip-path="url(#p8cae1d5080)"/>
    <path d="m376.49 318.38 12.716-10.873-12.716-11.013-12.716 11.013 12.716 10.873" clip-path="url(#p8cae1d5080)"/>
    <path d="m363.78 307.51 12.716-11.013-12.175-10.131-12.683 11.116 12.142 10.028" clip-path="url(#p8cae1d5080)"/>
    <path d="m389.21 307.51 12.142-10.028-12.683-11.116-12.175 10.131 12.716 11.013" clip-path="url(#p8cae1d5080)"/>
    <path d="m401.35 297.48 5.8253-4.6871-6.3814-5.6904-5.8412 4.7082 6.3973 5.6693" clip-path="url(#p8cae1d5080)"/>
    <path d="m394.95 291.81 5.8412-4.7082-6.2738-5.4639-5.8527 4.7255 6.2854 5.4465" clip-path="url(#p8cae1d5080)"/>
    <path d="m407.18 292.79 5.6487-4.467-6.3625-5.7071-5.6676 4.4837 6.3814 5.6904" clip-path="url(#p8cae1d5080)"/>
    <path d="m412.82 288.33 5.4645-4.2472-6.341-5.7197-5.486 4.2599 6.3625 5.7071" clip-path="url(#p8cae1d5080)"/>
    <path d="m358.03 291.81 6.2854-5.4465-5.8527-4.7255-6.2738 5.4639 5.8412 4.7082" clip-path="url(#p8cae1d5080)"/>
    <path d="m351.63 297.48 6.3973-5.6693-5.8412-4.7082-6.3814 5.6904 5.8253 4.6871" clip-path="url(#p8cae1d5080)"/>
    <path d="m345.81 292.79 6.3814-5.6904-5.6676-4.4837-6.3625 5.7071 5.6487 4.467" clip-path="url(#p8cae1d5080)"/>
    <path d="m340.16 288.33 6.3625-5.7071-5.486-4.2599-6.341 5.7197 5.4645 4.2472" clip-path="url(#p8cae1d5080)"/>
    <path d="m333.71 294.26 6.4487-5.929-5.4645-4.2472-6.423 5.9448 5.4387 4.2314" clip-path="url(#p8cae1d5080)"/>
    <path d="m327.19 300.4 6.5166-6.1409-5.4387-4.2314-6.4865 6.16 5.4086 4.2123" clip-path="url(#p8cae1d5080)"/>
    <path d="m349.83 342.39 26.66-24.012-24.858-20.901-26.356 24.712 24.554 20.201" clip-path="url(#p8cae1d5080)"/>
    <path d="m322.54 368.7 27.293-26.309-24.554-20.201-26.636 27.274 23.896 19.235" clip-path="url(#p8cae1d5080)"/>
    <path d="m298.64 349.47 6.6132-6.9965-5.5798-4.4335-6.5584 7.0472 5.525 4.3827" clip-path="url(#p8cae1d5080)"/>
    <path d="m299.68 338.04 6.6074-6.9384-5.4392-4.2919-6.5561 6.98 5.3879 4.2503" clip-path="url(#p8cae1d5080)"/>
    <path d="m305.26 342.47 6.6574-6.8911-5.6298-4.4809-6.6074 6.9384 5.5798 4.4335" clip-path="url(#p8cae1d5080)"/>
    <path d="m311.91 335.58 13.365-13.387-11.243-8.9294-13.191 13.543 11.069 8.7728" clip-path="url(#p8cae1d5080)"/>
    <path d="m296.99 372.72 13.255-13.966-11.605-9.2862-13.015 14.225 11.365 9.0279" clip-path="url(#p8cae1d5080)"/>
    <path d="m309.59 370.53 6.7183-6.8824-6.0645-4.8947-6.664 6.9547 6.0102 4.8225" clip-path="url(#p8cae1d5080)"/>
    <path d="m315.77 375.51 6.7697-6.8042-6.2262-5.0544-6.7183 6.8824 6.1747 4.9761" clip-path="url(#p8cae1d5080)"/>
    <path d="m322.1 380.63 6.8177-6.72-6.3762-5.2062-6.7697 6.8042 6.3282 5.122" clip-path="url(#p8cae1d5080)"/>
    <path d="m518.46 229.46 5.1297-2.4502-5.3916-5.4098-5.2126 2.373 5.4745 5.4869" clip-path="url(#p8cae1d5080)"/>
    <path d="m512.99 223.97 5.2126-2.373-5.3698-5.1725-5.2939 2.2983 5.451 5.2472" clip-path="url(#p8cae1d5080)"/>
    <path d="m507.54 218.72 5.2939-2.2983-5.3326-4.9324-5.3731 2.2264 5.4118 5.0043" clip-path="url(#p8cae1d5080)"/>
    <path d="m502.13 213.72 10.608-4.2508-10.339-9.0003-10.916 3.9752 10.647 9.2759" clip-path="url(#p8cae1d5080)"/>
    <path d="m497 202.35 2.7132-0.96781-2.5602-2.1193-2.7318 0.95151 2.5788 2.1356" clip-path="url(#p8cae1d5080)"/>
    <path d="m491.48 204.44 5.5243-2.0921-5.1364-4.2118-5.5957 2.0301 5.2078 4.2738" clip-path="url(#p8cae1d5080)"/>
    <path d="m468.36 214.81 11.73-5.5673-10.582-8.5303-11.961 5.3733 10.813 8.7242" clip-path="url(#p8cae1d5080)"/>
    <path d="m480.09 209.24 5.7452-2.4983-5.2761-4.3325-5.8101 2.443 5.3411 4.3877" clip-path="url(#p8cae1d5080)"/>
    <path d="m474.75 204.85 5.8101-2.443-5.1793-4.0903-5.8717 2.3907 5.2409 4.1426" clip-path="url(#p8cae1d5080)"/>
    <path d="m491 235.28 21.985-11.308-21.51-19.527-23.118 10.363 22.642 20.472" clip-path="url(#p8cae1d5080)"/>
    <path d="m468.01 249.01 22.991-13.736-22.642-20.472-23.902 13.106 23.553 21.102" clip-path="url(#p8cae1d5080)"/>
    <path d="m444.46 227.91 11.974-6.8465-11.013-8.8885-12.142 6.7127 11.181 9.0222" clip-path="url(#p8cae1d5080)"/>
    <path d="m456.43 221.07 11.928-6.2592-10.813-8.7242-12.128 6.0949 11.013 8.8885" clip-path="url(#p8cae1d5080)"/>
    <path d="m439.34 215.46 6.0787-3.2865-5.3231-4.0692-6.117 3.2526 5.3614 4.1031" clip-path="url(#p8cae1d5080)"/>
    <path d="m432.59 235.22 11.871-7.3101-11.181-9.0222-12.006 7.2065 11.316 9.1258" clip-path="url(#p8cae1d5080)"/>
    <path d="m434.16 272.17 11.018-7.8856-12.299-11.21-11.152 7.8647 12.434 11.23" clip-path="url(#p8cae1d5080)"/>
    <path d="m445.18 264.28 22.835-15.268-23.553-21.102-23.498 14.949 24.216 21.422" clip-path="url(#p8cae1d5080)"/>
    <path d="m475.27 333 40.821-30.911-48.077-53.079-44.45 31.037 51.706 52.954" clip-path="url(#p8cae1d5080)"/>
    <path d="m516.09 302.09 20.601-14.848-22.531-27.611-21.871 14.349 23.801 28.11" clip-path="url(#p8cae1d5080)"/>
    <path d="m492.29 273.98 21.871-14.349-23.155-24.356-22.991 13.736 24.275 24.969" clip-path="url(#p8cae1d5080)"/>
    <path d="m514.16 259.63 20.704-12.339-21.874-23.326-21.985 11.308 23.155 24.356" clip-path="url(#p8cae1d5080)"/>
    <path d="m526.12 254.78 1.288-0.77221-1.3924-1.6067-1.2932 0.76811 1.3976 1.6108" clip-path="url(#p8cae1d5080)"/>
    <path d="m525.57 273.09 10.233-6.6923-11.084-13.232-10.564 6.4667 11.416 13.458" clip-path="url(#p8cae1d5080)"/>
    <path d="m521.82 309.48 5.129-3.8227-5.6542-7.3743-5.2106 3.8105 5.7357 7.3865" clip-path="url(#p8cae1d5080)"/>
    <path d="m516.68 313.34 5.143-3.8585-5.7357-7.3865-5.223 3.8536 5.8156 7.3913" clip-path="url(#p8cae1d5080)"/>
    <path d="m511.54 317.22 5.1409-3.881-5.8156-7.3913-5.219 3.8829 5.8937 7.3893" clip-path="url(#p8cae1d5080)"/>
    <path d="m507.26 332.45 10.059-7.7475-11.671-14.873-10.362 7.7995 11.975 14.821" clip-path="url(#p8cae1d5080)"/>
    <path d="m497.38 340.11 9.879-7.6628-11.975-14.821-10.162 7.7572 12.258 14.726" clip-path="url(#p8cae1d5080)"/>
   </g>
   <path d="m487.79 347.6 9.5946-7.4895-12.258-14.726-9.8544 7.6175 12.518 14.598" clip-path="url(#p8cae1d5080)"/>
  </g>
 </g>
 <g transform="translate(-102.41 -113.58)" fill="none" stroke="#306998" stroke-linecap="square" stroke-width="1.5">
  <path d="m532.36 215.86 0.58481-0.21259-0.6407-0.62787-0.58618 0.21117 0.64207 0.62929" clip-path="url(#p8cae1d5080)"/>
  <path d="m537.64 332.64 0.61113-0.48078-0.65804-0.95515-0.61246 0.48087 0.65937 0.95506" clip-path="url(#p8cae1d5080)"/>
 </g>
 <defs>
  <clipPath id="p8cae1d5080">
   <rect x="91.8" y="86.4" width="554.4" height="554.4"/>
  </clipPath>
 </defs>
 <g fill="#729cbe" stroke-width="1.056" aria-label="Spherely">
  <path d="m596.87 229.78-14.356 16.435q23.068 19.801 55.145 19.801 49.601-0.59403 50.69-41.978 0-15.346-9.6034-26.929-9.7024-11.781-29.998-14.554-10.296-1.287-16.237-2.2771-10.692-1.9801-15.544-7.1283-4.8512-5.0492-4.8512-11.286 0.19801-10.395 7.2273-15.643 6.7323-5.0492 16.831-5.0492 19.504 0.39601 35.74 11.088l12.177-18.019q-19.9-14.356-46.829-14.95-22.375 0.19801-34.552 11.682-12.573 11.583-12.573 30.493 0 15.742 9.9994 26.731 9.7024 10.692 28.315 13.762 10.395 1.4851 19.108 2.6731 19.009 3.2671 18.811 19.405-0.39601 19.702-28.513 20.098-23.761-0.19801-40.988-14.356z"/>
  <path d="m709.53 306.4h20.692v-52.571q5.6432 5.5442 12.375 8.7123 6.2372 3.4651 14.158 3.4651 9.6034-0.19801 16.435-3.8612 6.9303-3.5641 11.187-9.5044 4.2572-5.0492 5.8412-12.97 1.4851-7.9203 1.4851-26.137 0-18.712-1.4851-26.533-1.5841-7.9203-5.8412-12.772-8.7124-12.97-27.622-13.465-16.237 0.49502-26.533 11.979v-10.692h-20.692zm40.988-61.085q-6.9303 0-10.989-2.9701-4.2572-2.8711-6.2372-7.5243-1.8811-4.6532-2.4751-10.395-0.59403-5.4452-0.59403-10.89 0-5.8412 0.59403-11.583 0.59402-5.4452 2.4751-10.098 1.9801-4.6532 6.2372-7.5243 4.0592-2.8711 10.989-2.8711 7.3263 0 11.583 2.4751 4.2572 2.6731 6.0392 7.3263 1.9801 4.4552 2.6731 10.296 0.19801 5.8412 0.19801 11.979 0 5.8412-0.19801 11.385-0.69302 5.6432-2.6731 10.296-1.7821 4.4552-6.0392 7.3263-4.2572 2.7721-11.583 2.7721z"/>
  <path d="m814.78 264.82h20.692v-61.184q0-10.791 5.8412-16.435 5.7422-5.7422 14.653-5.7422t14.554 5.7422q5.7422 5.6432 5.7422 16.435v61.184h20.692v-68.313q-0.49502-17.623-10.989-26.731-10.593-9.0094-23.365-9.0094-16.534 0-26.731 12.177h-0.39602v-52.472h-20.692z"/>
  <path d="m1003.4 221.26v-17.029q-0.1981-20.296-12.574-31.879-12.177-11.385-29.8-11.583-7.3263 0-14.851 2.6731-7.6233 2.6731-13.762 8.7124-6.0392 5.9402-9.9004 16.237-3.8612 10.098-3.8612 25.345 0 15.841 4.4552 25.741 4.0592 10.296 10.593 16.039 3.3661 2.7721 7.2273 4.6532 3.6632 2.1781 7.5243 3.4651 7.7223 2.3761 15.841 2.3761 21.286 0.19801 37.027-16.633l-14.95-12.772q-9.9004 9.9994-22.474 9.9994-10.791 0-17.425-6.5342-7.1283-6.4353-7.1283-18.811zm-64.056-17.029q0.59402-11.979 6.4352-18.118 5.9402-5.8412 15.247-5.8412 9.3064 0 15.247 5.8412 6.0392 6.1382 6.4352 18.118z"/>
  <path d="m1025.1 264.82h20.692v-61.877q0.198-11.286 6.5343-16.336 5.6432-5.1482 13.564-5.1482 7.0293 0 13.564 5.1482l15.049-17.92q-9.2074-7.7223-21.583-7.9203-16.534 0-26.731 12.177h-0.3961v-10.89h-20.692z"/>
  <path d="m1180 221.26v-17.029q-0.198-20.296-12.574-31.879-12.178-11.385-29.8-11.583-7.3262 0-14.85 2.6731-7.6233 2.6731-13.762 8.7124-6.0392 5.9402-9.9004 16.237-3.8611 10.098-3.8611 25.345 0 15.841 4.4551 25.741 4.0592 10.296 10.594 16.039 3.3661 2.7721 7.2272 4.6532 3.6632 2.1781 7.5243 3.4651 7.7223 2.3761 15.841 2.3761 21.286 0.19801 37.027-16.633l-14.95-12.772q-9.9004 9.9994-22.474 9.9994-10.792 0-17.425-6.5342-7.1283-6.4353-7.1283-18.811zm-64.056-17.029q0.594-11.979 6.4352-18.118 5.9403-5.8412 15.247-5.8412 9.3064 0 15.247 5.8412 6.0393 6.1382 6.4353 18.118z"/>
  <path d="m1201.7 239.87q0 13.564 7.7223 19.306 7.3263 5.6432 18.613 5.6432h9.2074v-19.504h-7.1283q-7.7223 0-7.7223-7.0293v-117.81h-20.692z"/>
  <path d="m1276 260.76-5.6432 17.227q-1.3861 4.4552-4.8512 6.7323-3.4651 2.1781-7.5243 2.1781h-6.0392v19.504h6.8312q9.6034 0 17.227-4.2572 7.5243-4.4552 11.782-16.039l44.255-124.05h-21.979l-24.256 71.976h-0.396l-24.355-71.976h-21.88z"/>
 </g>
</svg>
