<?xml version="1.0" encoding="UTF-8"?>
<svg width="1350.8pt" height="425.69pt" version="1.1" viewBox="0 0 1350.8 425.69" xmlns="http://www.w3.org/2000/svg" xmlns:cc="http://creativecommons.org/ns#" xmlns:dc="http://purl.org/dc/elements/1.1/" xmlns:rdf="http://www.w3.org/1999/02/22-rdf-syntax-ns#">
 <path d="m238.63 164.78 5.486 4.2599 5.6676 4.4837 6.2738-5.4639 5.8527 4.7255 6.0876 5.0657 6.0876-5.3126 5.7729 4.8684 12.255-9.347 6.2738 5.4639 5.6676-4.4837 5.486-4.2599 5.2979-4.038 5.2662-3.9391 5.3874-3.9513-6.3873-5.5531 10.945-7.837-11.496-10.181 11.627-7.6386-11.316-9.1258 6.0031-3.6032-5.4518-4.2146 6.0592-3.5224 6.0974-3.3956 6.117-3.2526 5.3231 4.0692 12.128-6.0949 11.961-5.3733 5.8717-2.3907 5.1793 4.0903 5.7109-2.2391 5.5957-2.0301 5.1364 4.2118 5.3916-1.8831 10.339 9.0003-5.2353 2.0245 5.3326 4.9324 5.3698 5.1725 5.3916 5.4098-5.1297 2.4502 16.4 17.839-10.042 5.9847 10.986 13.119-10.383 7.04 11.266 13.805-15.363 11.073 5.627 7.3389-5.129 3.8227-5.143 3.8585-5.1409 3.881 5.7775 7.4835-10.059 7.7475-9.879 7.6628-9.5946 7.4895-9.8208 7.7111-10.609 8.3781-11.365 9.0279-6.6269-6.9826-5.9741 4.7935-6.1747 4.9761-6.3282 5.122-6.8177-6.72-6.5131 5.3489-6.6356 5.4811-6.9229-6.4731-6.7691 5.6987-5.2137-4.7293-1.7054 1.4577-1.7353-1.5607-12.082 10.454-12.088-10.448-1.729 1.555-1.7092-1.461-5.2099 4.7325-6.7691-5.6987-6.9229 6.4731-6.6356-5.4811-6.5216-5.3406-6.8093 6.7116-6.3282-5.122-6.1747-4.9761-5.9741-4.7935-6.6269 6.9826-11.365-9.0279 3.2213-3.5783-2.741-2.1712 3.2527-3.5585-2.7328-2.1644 6.4896-7.1348 6.5584-7.0472-5.3879-4.2503 6.5561-6.98 13.191-13.543 13.159-12.867-5.4086-4.2123 6.4865-6.16 6.423-5.9448z" fill="#fd6"/>
 <path d="m131.85 233.95-20.997 30.208-9.3934 14.798-8.7186-7.267-8.2668 14.585-7.4861 14.101-4.0382-3.53-3.3724 6.8882-3.1873 6.7383-3.8749-3.4858-29.866-29.021 5.258-14.134-6.9896-7.2871-6.5315-7.1268 5.5545-14.372-6.1706-6.7272 2.9546-7.1612-2.9013-3.176 3.1657-7.0606-2.861-3.0518-5.0755-5.6792 6.4407-13.637-4.55-4.7955 14.265-25.599-4.2247-3.2781 7.6195-11.649 7.9631-11.111-4.0409-1.687 32.361-36.031 31.09-25.424 33.63-20.15 41.838-16.595 9.7102-2.4549 11.732-3.0131 11.921-2.4386 10.943-1.7375 24.448-2.6656 23.886-0.85322 11.943 0.42661 24.167 1.7594 12.224 1.3328 10.943 1.7375 23.654 5.4517 9.7102 2.4549 41.838 16.595 9.257 4.8844-7.747-2.1116-6.9582-3.6331-6.5201-0.59687 14.474 8.0011-18.36-1.0881-21.149 1.901-22.574-11.871-11.643 1.871-12.135-5.4386-11.763-4.5483-13.504 2.3337-19.37-5.9988-6.4873 1.6035-6.4873-1.6035-19.37 5.9988-12.753-2.6241-12.515 4.8387-12.135 5.4386-12.739-1.5685-21.478 11.569-19.673 12.846-19.089 14.721-19.891 18.001 9.3491 4.0844-10.619 10.886-10.574 11.781 9.6021 5.2114-15.791 19.841 4.5347 2.938-5.2579 6.9887 14.687 10.181-10.683 14.698 9.8718 7.4037 10.061 7.6207-10.508 15.43z" fill="#fd6"/>
 <path d="m170.61 264.5 22.887 18.063 13.157-13.781 12.693 10.201 13.325 10.728 13.727-12.951 20.694 17.392 6.9922-6.0573 6.9922 6.0573 20.694-17.392 13.835 12.909 13.217-10.686 12.693-10.201 13.157 13.781 22.887-18.063 19.873-15.671 18.887-14.881 19.528-15.371-10.814-15.19 10.061-7.6207 9.6052-7.2038-10.417-14.898 14.687-10.181-5.2579-6.9887 4.7537-3.0799-16.01-19.699 9.6021-5.2114-10.574-11.781-10.619-10.886 9.6694-3.7704-20.211-18.315 18.623-3.8253 15.65-0.91288 8.6926 7.7273 6.275-0.27322 5.6509 0.60182 8.0686 7.3322 32.361 36.031-3.8747 1.919 7.7968 10.879 7.6195 11.649-4.2247 3.2781 14.265 25.599-4.886 5.0399 6.7767 13.392-5.0755 5.6792 5.9352 14.054-11.748 13.123 5.5545 14.372-6.5315 7.1268-6.9896 7.2871 5.258 14.134-29.866 29.021-30.378 26.091-34.328 26.77-44.324 31.443-10.93-10.108-12.706 8.6403-13.01 8.6528-12.277-9.7342-13.47 9.0328-6.4547-4.8011-6.7963 4.5794-6.6002-4.7794-6.8074 4.6458-13.487 9.1071-13.487-9.1071-6.8074-4.6458-6.6002 4.7794-6.7408-4.6263-6.5103 4.848-13.47-9.0328-6.2104 4.9238-6.6148-4.4336-6.5526-4.4371-5.9093 5.0283-12.706-8.6403-10.93 10.108-44.324-31.443-9.5756-7.2273 8.8229-12.026 9.9416-12.42-10.042-7.7137 20.717-27.365z" fill="#729cbe"/>
 <path d="m228.06 156.81-19.075 17.884-4.9517-3.6914-32.315 33.591-5.1138-3.8882-12.319 14.588-2.5156-1.931-2.998 3.7108-2.5096-1.9329-2.9509 3.7365-10.059-7.7475 5.7775-7.4835-15.413-11.562 5.6687-7.346-10.332-7.4658 5.5954-7.1936-5.157-3.5614 5.604-6.9985-10.233-6.6923 11.084-13.232-5.1306-3.015 5.5305-6.2431-5.0941-2.7818 10.954-11.671-5.1297-2.4502 16.094-15.515-5.2353-2.0245 10.339-9.0003 10.036-8.0625 9.6438-7.1569 9.7725-6.691 10.452-6.5579 11.086-6.305 6.0955 1.4829 5.7714-3.1706 5.9482-2.9452 6.0658-2.8184 6.2927 1.4938 18.881-7.6264 12.928 3.9285 12.928-4.6847 12.134 3.9754 13.723-3.2193 18.881 7.6264 6.2927-1.4938 6.0658 2.8184 5.9482 2.9452 5.7714 3.1706 6.0955-1.4829 11.086 6.305-2.8636 0.75038 2.6056 1.5803-2.9612 0.76637 2.6658 1.6576-5.9712 1.7236 5.2673 3.3971-12.098 4.1968-12.348 5.0342-12.448 5.7977 5.3704 3.6783-6.1836 3.1874-6.1558 3.3357-6.1095 3.468-5.4136-3.7118-6.097 3.4984-11.117-7.3026-12.139 7.1301-12.07-7.0893-5.5712 3.5004-6.0776-3.53-5.6011 3.7341-5.4476 3.7707-5.2856 3.7901-5.2786 3.9153-5.4257 4.1612-5.563 4.4119 5.9472 3.6808-5.7227 4.6898-5.6571 5.0629 5.636 3.6884-5.7921 5.0515 5.5231 4.048 5.626 3.9209-6.1434 5.4905z" fill="#729cbe"/>
 <metadata>
  <rdf:RDF>
   <cc:Work>
    <dc:type rdf:resource="http://purl.org/dc/dcmitype/StillImage"/>
    <dc:date>2022-12-19T20:48:53.425922</dc:date>
    <dc:format>image/svg+xml</dc:format>
    <dc:creator>
     <cc:Agent>
      <dc:title>Matplotlib v3.6.2, https://matplotlib.org/</dc:title>
     </cc:Agent>
    </dc:creator>
   </cc:Work>
  </rdf:RDF>
 </metadata>
 <defs>
  <style type="text/css">*{stroke-linejoin: round; stroke-linecap: butt}</style>
 </defs>
 <g fill="#729cbe" stroke-width="1.056" aria-label="Spherely">
  <path d="m596.87 229.78-14.356 16.435q23.068 19.801 55.145 19.801 49.601-0.59403 50.69-41.978 0-15.346-9.6034-26.929-9.7024-11.781-29.998-14.554-10.296-1.287-16.237-2.2771-10.692-1.9801-15.544-7.1283-4.8512-5.0492-4.8512-11.286 0.19801-10.395 7.2273-15.643 6.7323-5.0492 16.831-5.0492 19.504 0.39601 35.74 11.088l12.177-18.019q-19.9-14.356-46.829-14.95-22.375 0.19801-34.552 11.682-12.573 11.583-12.573 30.493 0 15.742 9.9994 26.731 9.7024 10.692 28.315 13.762 10.395 1.4851 19.108 2.6731 19.009 3.2671 18.811 19.405-0.39601 19.702-28.513 20.098-23.761-0.19801-40.988-14.356z"/>
  <path d="m709.53 306.4h20.692v-52.571q5.6432 5.5442 12.375 8.7123 6.2372 3.4651 14.158 3.4651 9.6034-0.19801 16.435-3.8612 6.9303-3.5641 11.187-9.5044 4.2572-5.0492 5.8412-12.97 1.4851-7.9203 1.4851-26.137 0-18.712-1.4851-26.533-1.5841-7.9203-5.8412-12.772-8.7124-12.97-27.622-13.465-16.237 0.49502-26.533 11.979v-10.692h-20.692zm40.988-61.085q-6.9303 0-10.989-2.9701-4.2572-2.8711-6.2372-7.5243-1.8811-4.6532-2.4751-10.395-0.59403-5.4452-0.59403-10.89 0-5.8412 0.59403-11.583 0.59402-5.4452 2.4751-10.098 1.9801-4.6532 6.2372-7.5243 4.0592-2.8711 10.989-2.8711 7.3263 0 11.583 2.4751 4.2572 2.6731 6.0392 7.3263 1.9801 4.4552 2.6731 10.296 0.19801 5.8412 0.19801 11.979 0 5.8412-0.19801 11.385-0.69302 5.6432-2.6731 10.296-1.7821 4.4552-6.0392 7.3263-4.2572 2.7721-11.583 2.7721z"/>
  <path d="m814.78 264.82h20.692v-61.184q0-10.791 5.8412-16.435 5.7422-5.7422 14.653-5.7422t14.554 5.7422q5.7422 5.6432 5.7422 16.435v61.184h20.692v-68.313q-0.49502-17.623-10.989-26.731-10.593-9.0094-23.365-9.0094-16.534 0-26.731 12.177h-0.39602v-52.472h-20.692z"/>
  <path d="m1003.4 221.26v-17.029q-0.1981-20.296-12.574-31.879-12.177-11.385-29.8-11.583-7.3263 0-14.851 2.6731-7.6233 2.6731-13.762 8.7124-6.0392 5.9402-9.9004 16.237-3.8612 10.098-3.8612 25.345 0 15.841 4.4552 25.741 4.0592 10.296 10.593 16.039 3.3661 2.7721 7.2273 4.6532 3.6632 2.1781 7.5243 3.4651 7.7223 2.3761 15.841 2.3761 21.286 0.19801 37.027-16.633l-14.95-12.772q-9.9004 9.9994-22.474 9.9994-10.791 0-17.425-6.5342-7.1283-6.4353-7.1283-18.811zm-64.056-17.029q0.59402-11.979 6.4352-18.118 5.9402-5.8412 15.247-5.8412 9.3064 0 15.247 5.8412 6.0392 6.1382 6.4352 18.118z"/>
  <path d="m1025.1 264.82h20.692v-61.877q0.198-11.286 6.5343-16.336 5.6432-5.1482 13.564-5.1482 7.0293 0 13.564 5.1482l15.049-17.92q-9.2074-7.7223-21.583-7.9203-16.534 0-26.731 12.177h-0.3961v-10.89h-20.692z"/>
  <path d="m1180 221.26v-17.029q-0.198-20.296-12.574-31.879-12.178-11.385-29.8-11.583-7.3262 0-14.85 2.6731-7.6233 2.6731-13.762 8.7124-6.0392 5.9402-9.9004 16.237-3.8611 10.098-3.8611 25.345 0 15.841 4.4551 25.741 4.0592 10.296 10.594 16.039 3.3661 2.7721 7.2272 4.6532 3.6632 2.1781 7.5243 3.4651 7.7223 2.3761 15.841 2.3761 21.286 0.19801 37.027-16.633l-14.95-12.772q-9.9004 9.9994-22.474 9.9994-10.792 0-17.425-6.5342-7.1283-6.4353-7.1283-18.811zm-64.056-17.029q0.594-11.979 6.4352-18.118 5.9403-5.8412 15.247-5.8412 9.3064 0 15.247 5.8412 6.0393 6.1382 6.4353 18.118z"/>
  <path d="m1201.7 239.87q0 13.564 7.7223 19.306 7.3263 5.6432 18.613 5.6432h9.2074v-19.504h-7.1283q-7.7223 0-7.7223-7.0293v-117.81h-20.692z"/>
  <path d="m1276 260.76-5.6432 17.227q-1.3861 4.4552-4.8512 6.7323-3.4651 2.1781-7.5243 2.1781h-6.0392v19.504h6.8312q9.6034 0 17.227-4.2572 7.5243-4.4552 11.782-16.039l44.255-124.05h-21.979l-24.256 71.976h-0.396l-24.355-71.976h-21.88z"/>
 </g>
</svg>
